<?xml version="1.0" encoding="utf-8"?>
<!-- Generator: Adobe Illustrator 17.1.0, SVG Export Plug-In . SVG Version: 6.00 Build 0)  -->
<!DOCTYPE svg PUBLIC "-//W3C//DTD SVG 1.1//EN" "http://www.w3.org/Graphics/SVG/1.1/DTD/svg11.dtd">
<svg version="1.1" id="Layer_1" xmlns="http://www.w3.org/2000/svg" xmlns:xlink="http://www.w3.org/1999/xlink" x="0px" y="0px"
	 viewBox="0 0 77.5 75.6" enable-background="new 0 0 77.5 75.6" xml:space="preserve">
<g>
	<defs>
		<rect id="SVGID_1_" y="0" width="77.5" height="75.6"/>
	</defs>
	<clipPath id="SVGID_2_">
		<use xlink:href="#SVGID_1_"  overflow="visible"/>
	</clipPath>
	<path clip-path="url(#SVGID_2_)" fill="#6A58A4" d="M2,2.4C1.5,2.4,1,2.5,0.7,3h0c0.1-0.7,0.4-1.1,1.1-1.5l1.4-0.6L3,0.4L1.7,0.9
		C0.4,1.5,0,2.3,0,3.6c0,1.3,0.6,2.2,1.8,2.2c1,0,1.7-0.7,1.7-1.8C3.6,3,2.9,2.4,2,2.4 M1.8,5.2c-0.6,0-1-0.4-1-1.2
		c0-0.7,0.4-1.1,1.1-1.1c0.6,0,1,0.4,1,1.2C2.9,4.8,2.4,5.2,1.8,5.2 M6.4,3.4c-0.8,0-2.2,0.1-2.2,1.3c0,0.7,0.6,1.1,1.2,1.1
		c0.6,0,1-0.3,1.2-0.8h0c0,0,0,0.1,0,0.3v0.4h0.7V3.4c0-0.9-0.5-1.5-1.5-1.5c-0.5,0-1.1,0.2-1.4,0.4l0.3,0.5c0.3-0.2,0.7-0.4,1-0.4
		c0.5,0,0.8,0.2,0.8,0.8v0.1H6.4z M6.6,4.1c0,0.6-0.4,1.2-1,1.2C5.1,5.3,4.9,5,4.9,4.7c0-0.7,1-0.7,1.5-0.7h0.2V4.1z M9.2,2.6H7.9V2
		h3.3v0.6H9.9v3.1H9.2V2.6z M12.4,7.3C12,7.3,11.7,7,11.7,7l0.2-0.5c0,0,0.2,0.2,0.4,0.2c0.3,0,0.5-0.2,0.7-0.6l0.2-0.4L11.7,2h0.8
		l0.9,2.4c0.1,0.2,0.1,0.4,0.1,0.4h0c0,0,0.1-0.3,0.1-0.4L14.6,2h0.8l-1.7,4.4C13.4,7,12.9,7.3,12.4,7.3 M15.9,2h3.3v0.6h-1.3v3.1
		h-0.7V2.6h-1.3V2z M22.4,2h0.7v3.7h-0.7V4.1h-1.9v1.6h-0.7V2h0.7v1.5h1.9V2z M25.6,3.4h-0.7V2h-0.7v3.7h1.4c0.9,0,1.3-0.5,1.3-1.2
		C26.9,3.7,26.4,3.4,25.6,3.4 M25.5,5.2h-0.6V3.9h0.6c0.5,0,0.7,0.3,0.7,0.7C26.2,4.9,26,5.2,25.5,5.2 M27.5,2h0.7v3.7h-0.7V2z
		 M30.3,0.6v0.1c0,0.3,0.3,0.5,0.5,0.5c0.3,0,0.5-0.2,0.5-0.5V0.6h0.6v0.1c0,0.6-0.5,0.9-1.1,0.9c-0.6,0-1.1-0.3-1.1-0.9V0.6H30.3z
		 M31.8,2h0.7v3.7h-0.7V3.5c0-0.2,0-0.4,0-0.5h0c0,0.1-0.2,0.3-0.3,0.5l-1.6,2.2h-0.7V2h0.7v2.2c0,0.2,0,0.5,0,0.5h0
		c0-0.1,0.2-0.3,0.3-0.5L31.8,2z M0.2,8.1h3.2v3.7H2.7V8.7H0.9v3.1H0.2V8.1z M5.9,8C5.4,8,4.8,8.2,4.5,8.4L4.8,9
		c0.3-0.2,0.7-0.4,1-0.4c0.5,0,0.8,0.2,0.8,0.8v0.1H6.5c-0.8,0-2.2,0.1-2.2,1.3c0,0.7,0.6,1.1,1.2,1.1c0.5,0,1-0.3,1.2-0.8h0
		c0,0,0,0.1,0,0.3v0.4h0.7V9.4C7.4,8.5,6.8,8,5.9,8 M6.6,10.1c0,0.5-0.4,1.2-1,1.2C5.2,11.3,5,11,5,10.7C5,10,5.9,10,6.5,10h0.2
		V10.1z M10.3,8c-0.5,0-1,0.2-1.2,0.7h0c0,0,0-0.1,0-0.3V8.1H8.4v5.2h0.7v-1.7c0-0.2,0-0.3,0-0.3h0c0.3,0.4,0.7,0.6,1.2,0.6
		c1,0,1.7-0.8,1.7-1.9C12,8.8,11.3,8,10.3,8 M10.2,11.3c-0.7,0-1.1-0.7-1.1-1.3c0-0.9,0.5-1.3,1.1-1.3c0.6,0,1,0.5,1,1.3
		C11.3,10.8,10.8,11.3,10.2,11.3 M14.7,9.9l1.4,1.9h-0.8l-1.1-1.6h-0.5v1.6h-0.7V8.1h0.7v1.5h0.5l1-1.5H16L14.7,9.9L14.7,9.9z
		 M18.5,63.5l-0.7-3.1l2.9-3l1.6,2.7l3.2-2.6L13.5,41.4l-2.9,3.9l4.9,21.1L18.5,63.5z M18.6,54.4l-1.9,2.2l-2.2-9.3L18.6,54.4z
		 M33.8,46.2l1.3,4.6c-3.4,2.1-6.2,4.1-9,6.3l-2.2-21.5l-5.7,6.4l-1.8-3.9c3.1-3.9,6.7-7.8,10.6-11.7L29.1,50L33.8,46.2z M43,30.6
		l2.6,14.6c0,0-1.8,1.6-4.3,2c-2.5,0.4-5-0.8-6.5-2.6c-1.4-1.8-4-5.9-4.5-13.1c-0.4-7.3,2.8-10.9,5.1-13c2.2-1.9,5.4-3.2,5.4-3.2
		l0.5,5.7c-4.6,1.6-6.4,5.9-6.2,10.3c0.1,3.7,0.9,6.6,2,8.8c1.2,2.2,2.9,3,3.8,2.7l-2.1-9.3L43,30.6z M12.4,69.7l2.6-2.8
		c0,0-2.5-2.1-4-3.4c0.6-1.6,1-5.9-1.4-8.3c-1.5-1.5-4.1-1.6-5.2-0.1c-1.7,2.3-4,6.9-4,6.9l7,13.6l2.5-3L8.2,69l1.2-1.8L12.4,69.7z
		 M5.5,59.3c0.5-0.8,1.4-0.7,1.9,0.3c0.5,1,0.6,2.6-0.1,3.8c-0.4,0.7-1.1,2-1.1,2l-1.9-3.7C4.6,61.2,5.1,60,5.5,59.3 M50.3,8.4
		c-5.2,1.2-7.1,8.8-6.1,18c1.1,10.2,4.5,16.9,9.7,15.7c5.2-1.2,7-9.2,5.9-19.3C58.9,13.6,55.9,7.1,50.3,8.4 M53.3,36.8
		c-2.1,0.5-3.4-5.5-4-11.6c-0.6-6-0.3-10.3,1.8-10.8c2-0.4,3.2,3.6,3.7,9.6C55.4,30.1,55.3,36.3,53.3,36.8 M77.5,0l-0.7,37.7l-4,0.2
		l-5.4-17.5l-1.2-4.3l0,0.5l0.2,3l0.5,19L63,39.4L60.9,4.3l5-1.7l5.6,18.7l1.1,4.3l0-0.5L72.5,23L72.1,1L77.5,0z"/>
</g>
</svg>
