<svg xmlns="http://www.w3.org/2000/svg" width="20" height="18" viewBox="0 0 20 18">

  <path id="Shopping_Cart" data-name="Shopping Cart" class="cls-1" d="M473.438,3905.86H460.455l-3.312-11.58H455V3893h3.154l3.313,11.57h10.868l1.085-5.79H462.947v-1.28H475ZM462.284,3911a1.931,1.931,0,1,1,1.988-1.93A1.964,1.964,0,0,1,462.284,3911Zm0-2.57a0.64,0.64,0,1,0,.663.64A0.654,0.654,0,0,0,462.284,3908.43ZM470.9,3911a1.931,1.931,0,1,1,1.988-1.93A1.965,1.965,0,0,1,470.9,3911Zm0-2.57a0.64,0.64,0,1,0,.663.64A0.653,0.653,0,0,0,470.9,3908.43Zm-5.3-5.15h-1.325v-3.21H465.6v3.21Zm3.975,0h-1.325v-3.21h1.325v3.21Z" transform="translate(-455 -3893)"/>
</svg>
