
<svg version="1.1" id="Layer_1" xmlns="http://www.w3.org/2000/svg" xmlns:xlink="http://www.w3.org/1999/xlink" x="0px" y="0px"
	 viewBox="0 0 86.4 82.1" enable-background="new 0 0 86.4 82.1" xml:space="preserve">
<g>

	<path clip-path="url(#SVGID_2_)"  d="M86.2,58.4c-1.3-2.5-4.7-8.3-8.9-8.6c-0.8-0.1-1.4,0-1.9,0.1
		c-1,0.2-1.4,0.2-2.7-1c-3.1-2.9-6.3-9.1-5.9-11.1l5.9-3c0.4-0.2,0.7-0.6,0.9-1c0.1-0.4,0.1-0.9-0.1-1.3
		C66.9,19.6,57,10.6,49.6,10.6c-1.4,0-2.7,0.3-3.8,0.9c-7.5,3.9-7,19.1,1,34.7c0.2,0.4,0.6,0.7,1,0.9c0.2,0.1,0.4,0.1,0.5,0.1
		c0.3,0,0.6-0.1,0.8-0.2l5.9-3c1.9,0.8,5.1,7,5.7,11.2c0.2,1.7-0.1,2-0.7,2.7c-0.4,0.4-0.8,0.8-1.2,1.5c-2.2,3.5,0.6,9.7,1.9,12.2
		c0.3,0.6,0.9,0.9,1.6,0.9c0.3,0,0.5-0.1,0.8-0.2c0.9-0.4,1.2-1.5,0.7-2.4c-2.2-4.3-2.7-7.6-2-8.7c0.2-0.3,0.4-0.6,0.7-0.9
		c1.2-1.2,2.1-2.5,1.7-5.6c-0.4-3.1-2.6-9.4-5.8-12.5l1-0.5l16.9,32.7c0.3,0.6,0.9,0.9,1.6,0.9c0.3,0,0.5-0.1,0.8-0.2
		c0.9-0.4,1.2-1.5,0.8-2.4L62.5,40.1l1-0.5c0.7,4.3,4.6,9.8,6.9,11.9c2.3,2.2,3.9,2.1,5.6,1.9c0.4-0.1,0.8-0.1,1.1-0.1
		c1.3,0.1,3.8,2.4,6,6.7c0.3,0.6,0.9,1,1.6,1c0.3,0,0.5-0.1,0.8-0.2C86.3,60.3,86.6,59.2,86.2,58.4 M49.1,43.1
		c-6.8-14.1-6.5-26-1.7-28.5c0.7-0.3,1.4-0.5,2.2-0.5c5,0,13.3,6.3,20,18.4L49.1,43.1z"/>
	<path clip-path="url(#SVGID_2_)"  d="M28,46.5c0.9-0.4,1.2-1.5,0.8-2.4l-8.1-15.6c0.4,0.5,0.8,0.9,1.1,1.1
		c1.8,1.7,3.2,1.6,4.5,1.4c0.3,0,0.5-0.1,0.7-0.1c0.7,0,2.3,1.4,3.9,4.4c0.3,0.6,0.9,1,1.6,1c0.3,0,0.5-0.1,0.8-0.2
		c0.9-0.4,1.2-1.5,0.8-2.4c-0.9-1.8-3.5-6.1-6.8-6.3c-0.6,0-1.1,0.1-1.5,0.1c-0.7,0.1-0.8,0.1-1.5-0.5c-2.2-2-4.1-5.8-4-7.1l4.2-2.2
		c0.4-0.2,0.7-0.6,0.9-1c0.1-0.4,0.1-0.9-0.1-1.3C20.3,6.2,13.2,0,7.5,0C6.4,0,5.3,0.2,4.4,0.7c-5.9,3-5.8,14,0.1,25.4
		c0.2,0.4,0.6,0.7,1,0.9c0.2,0.1,0.4,0.1,0.5,0.1c0.3,0,0.6-0.1,0.8-0.2l4.2-2.2c1.1,0.7,3.1,4.4,3.5,7.4c0.1,1,0,1.1-0.5,1.6
		c-0.3,0.3-0.6,0.6-1,1.1c-1.8,2.8,0.2,7.4,1.2,9.2c0.3,0.6,0.9,0.9,1.6,0.9c0.3,0,0.5-0.1,0.8-0.2c0.9-0.4,1.2-1.5,0.7-2.4
		c-1.5-3-1.7-5.1-1.3-5.7c0.1-0.2,0.3-0.4,0.5-0.6c0.9-0.9,1.8-2,1.5-4.4c0-0.4-0.2-1-0.3-1.5l8.1,15.6c0.3,0.6,0.9,0.9,1.6,0.9
		C27.5,46.7,27.8,46.7,28,46.5 M6.8,23C2.4,13.6,2.8,5.5,6,3.9c0.5-0.2,1-0.4,1.6-0.4c3.4,0,9.1,4.1,13.6,12.1L6.8,23z"/>
	<path clip-path="url(#SVGID_2_)"  d="M12.6,70.9c-3.1,0-5.6,2.5-5.6,5.6s2.5,5.6,5.6,5.6c3.1,0,5.6-2.5,5.6-5.6
		S15.7,70.9,12.6,70.9 M12.6,78.6c-1.2,0-2.1-0.9-2.1-2.1c0-1.2,0.9-2.1,2.1-2.1c1.2,0,2.1,0.9,2.1,2.1
		C14.7,77.6,13.8,78.6,12.6,78.6"/>
	<path clip-path="url(#SVGID_2_)"  d="M36.5,49.5c-5.7,0-10.3,4.6-10.3,10.3c0,5.7,4.6,10.3,10.3,10.3
		c5.7,0,10.3-4.6,10.3-10.3C46.9,54.1,42.2,49.5,36.5,49.5 M36.5,66.6c-3.8,0-6.8-3.1-6.8-6.8c0-3.8,3.1-6.8,6.8-6.8
		c3.8,0,6.8,3.1,6.8,6.8C43.4,63.5,40.3,66.6,36.5,66.6"/>
	<path clip-path="url(#SVGID_2_)"  d="M73.5,12.4c2,0,3.7-1.8,3.7-4c0-2.2-1.6-4-3.7-4c-2,0-3.7,1.8-3.7,4
		C69.9,10.6,71.5,12.4,73.5,12.4 M73.5,7.9c0.1,0,0.2,0.2,0.2,0.5c0,0.3-0.1,0.4-0.2,0.5c-0.1-0.1-0.2-0.2-0.2-0.5
		C73.4,8.1,73.5,8,73.5,7.9"/>
</g>
</svg>
