
<svg version="1.1" id="Layer_1" xmlns="http://www.w3.org/2000/svg" xmlns:xlink="http://www.w3.org/1999/xlink" x="0px" y="0px"
	 viewBox="0 0 85.4 76.4" enable-background="new 0 0 85.4 76.4" xml:space="preserve">
<g>

	<path clip-path="url(#SVGID_2_)" d="M3,67.1l5.4-5.4l5.5,5.6c0.1,0.1,0.2,0.2,0.4,0.3l1.3-3.6l-5.9-6
		c-0.3-0.3-0.8-0.5-1.2-0.5c-0.4,0-0.9,0.2-1.2,0.5l-6.6,6.6c-0.7,0.7-0.7,1.8,0,2.5C1.2,67.8,2.3,67.8,3,67.1"/>
	<path clip-path="url(#SVGID_2_)" d="M69.5,32.6c-0.2-0.7-0.9-1.2-1.6-1.2s-1.4,0.5-1.6,1.2l-6,16.6l-9.7-26.9
		c-0.3-0.7-0.9-1.2-1.6-1.2c-0.7,0-1.4,0.5-1.6,1.2l-9.8,27.2l-6.1-16.9c-0.2-0.7-0.9-1.2-1.6-1.2c-0.7,0-1.4,0.5-1.6,1.2L16.4,65
		c0,0,0,0,0,0l-2.8,7.8c0,0-2.8,0-3.6,0v-2.8l2.5,2.5l1.3-3.7l-4.1-4.2c-0.3-0.3-0.8-0.5-1.2-0.5c-0.4,0-0.9,0.2-1.2,0.5l-6.6,6.6
		c-0.7,0.7-0.7,1.8,0,2.5c0.7,0.7,1.8,0.7,2.5,0l3.5-3.5v4.3c0,0,0,0.1,0,0.1c0,1,0.8,1.7,1.7,1.7h0c2,0,4.1,0,6.1,0
		c5.1,0,10.1-0.1,15.2-0.1c5.3,0,10.5,0,15.8,0c2.3,0,4.6,0,7,0c5.2,0,10.5,0,15.7,0.1c-0.1,0-0.2,0-0.2,0h15c0.6,0,1.1-0.3,1.4-0.7
		c0.3-0.5,0.4-1.1,0.2-1.6L69.5,32.6z M67.8,38.4l2.5,7.1l-2.6,2.9l-2.6-2.8L67.8,38.4z M48.9,28l3.7,10.1l-3.8,4.2l-3.6-3.9
		L48.9,28z M29.7,38.4l2.6,7.1l-2.5,2.9l-2.6-2.9L29.7,38.4z M29,72.9H17.3l0-0.1l8.5-23.6l2.7,3c0.3,0.4,0.8,0.6,1.3,0.6h0
		c0.5,0,1-0.2,1.3-0.6l2.5-2.9l1.9,5.4L29,72.9z M51.7,72.9h-5.8H32.7l0,0h0l4.7-13l1.9-5.2l4.5-12.5l3.7,3.9
		c0.3,0.4,0.8,0.6,1.3,0.6h0c0.5,0,1-0.2,1.3-0.6l3.8-4.2l4.5,12.5l1.9,5.2L65,72.9H51.7z M71.9,72.9h-3.2h0l-6.6-18.5l1.8-5.1
		l2.6,2.9c0.3,0.4,0.8,0.6,1.3,0.6h0c0.5,0,1-0.2,1.3-0.6l2.6-3l8.5,23.6H71.9z"/>
	<path clip-path="url(#SVGID_2_)" d="M3,60.5l5.4-5.4l5.5,5.6c0.3,0.3,0.8,0.5,1.2,0.5c0.4,0,0.9-0.2,1.2-0.5
		c0.7-0.7,0.7-1.8,0-2.5l-6.7-6.8c-0.3-0.3-0.8-0.5-1.2-0.5c-0.4,0-0.9,0.2-1.2,0.5L0.5,58c-0.7,0.7-0.7,1.8,0,2.5
		C1.2,61.2,2.3,61.2,3,60.5"/>
	<path clip-path="url(#SVGID_2_)" d="M8,23.9c3.5,0,6.3-2.8,6.3-6.3c0-3.5-2.8-6.3-6.3-6.3s-6.3,2.8-6.3,6.3
		C1.6,21.1,4.5,23.9,8,23.9 M8,14.8c1.6,0,2.8,1.3,2.8,2.8c0,1.6-1.3,2.8-2.8,2.8s-2.8-1.3-2.8-2.8C5.1,16,6.4,14.8,8,14.8"/>
	<path clip-path="url(#SVGID_2_)" d="M65.1,3.4L65.1,3.4c0.1,0,5.1-0.1,7.8,2.7c0.3,0.3,0.8,0.5,1.2,0.5
		c0.1,0,0.2,0,0.3,0c0.1,0,0.2,0,0.3,0c0.4,0,0.9-0.2,1.2-0.5c2.7-2.7,7.7-2.7,7.8-2.7c0.9,0,1.7-0.7,1.7-1.6c0-0.9-0.7-1.7-1.6-1.7
		c-0.2,0-5.6-0.1-9.3,2.9c-3.8-3-9.1-2.9-9.3-2.9c-0.9,0-1.7,0.8-1.6,1.7C63.4,2.6,64.2,3.4,65.1,3.4"/>
	<path clip-path="url(#SVGID_2_)" d="M53.8,11.4c0,0,3.8,0,5.9,2.6c0.3,0.4,0.8,0.6,1.3,0.6c0.1,0,0.2,0,0.2,0
		c0.1,0,0.2,0,0.2,0c0.5,0,1-0.2,1.3-0.6c2.1-2.6,5.8-2.6,5.9-2.6c0.9,0,1.7-0.7,1.7-1.6c0-0.9-0.7-1.7-1.6-1.7
		c-0.2,0-4.4-0.1-7.5,2.7c-3.1-2.8-7.3-2.7-7.5-2.7c-0.9,0-1.7,0.8-1.6,1.7C52.1,10.7,52.9,11.5,53.8,11.4"/>
</g>
</svg>
