
<svg version="1.1" id="Layer_1" xmlns="http://www.w3.org/2000/svg" xmlns:xlink="http://www.w3.org/1999/xlink" x="0px" y="0px"
	 viewBox="0 0 58.1 87.5" enable-background="new 0 0 58.1 87.5" xml:space="preserve">
<g>

	<path clip-path="url(#SVGID_2_)"  d="M15.9,11.6l3.7,18.1h-4.8c-0.5,0-0.9,0.2-1.3,0.6c-0.3,0.4-0.5,0.8-0.5,1.3
		l2.7,45.6c0,2.5,2.1,4.5,4.6,4.5h16.4c2.5,0,4.6-2,4.6-4.5L44,31.6c0-0.5-0.1-1-0.5-1.3c-0.3-0.4-0.8-0.6-1.3-0.6H23.2l-4-19.6
		C19,9.7,18.7,9.2,18.3,9L2.6,0.2C1.8-0.2,0.7,0.1,0.2,0.9c-0.5,0.8-0.2,1.9,0.7,2.4L15.9,11.6z M26.6,64c0.2,0.8,0.9,1.4,1.7,1.4
		c0.1,0,0.2,0,0.4,0c0.9-0.2,1.6-1.1,1.4-2.1l-6.2-30.1h16.5L40.1,38H28.3c-1,0-1.8,0.8-1.8,1.8c0,1,0.8,1.8,1.8,1.8h11.6L37.8,77
		c0,0,0,0.1,0,0.1c0,0.6-0.5,1.1-1.1,1.1H20.3c-0.6,0-1.1-0.5-1.1-1.1c0,0,0-0.1,0-0.1l-2.1-35.5h1.7c1,0,1.8-0.8,1.8-1.8
		c0-1-0.8-1.8-1.8-1.8h-1.9l-0.3-4.8h3.7L26.6,64z"/>
	<path clip-path="url(#SVGID_2_)"  d="M34.1,55.5c2.6,0,4.7-2.1,4.7-4.7c0-2.6-2.1-4.7-4.7-4.7s-4.7,2.1-4.7,4.7
		C29.4,53.4,31.5,55.5,34.1,55.5 M34.1,49.7c0.6,0,1.2,0.5,1.2,1.2c0,0.6-0.5,1.2-1.2,1.2c-0.6,0-1.2-0.5-1.2-1.2
		C32.9,50.2,33.4,49.7,34.1,49.7"/>
	<path clip-path="url(#SVGID_2_)"  d="M19,65.1c0,1.6,1.3,2.9,2.9,2.9c1.6,0,2.9-1.3,2.9-2.9c0-1.6-1.3-2.9-2.9-2.9
		C20.2,62.3,19,63.5,19,65.1 M21.8,64.5c0.4,0,0.6,0.3,0.6,0.6c0,0.4-0.3,0.6-0.6,0.6c-0.4,0-0.6-0.3-0.6-0.6
		C21.2,64.7,21.5,64.5,21.8,64.5"/>
	<path clip-path="url(#SVGID_2_)"  d="M32.1,76.9c3,0,5.5-2.5,5.5-5.5c0-3-2.5-5.5-5.5-5.5s-5.5,2.5-5.5,5.5
		C26.6,74.4,29.1,76.9,32.1,76.9 M32.1,69.4c1.1,0,2,0.9,2,2c0,1.1-0.9,2-2,2c-1.1,0-2-0.9-2-2C30.1,70.3,31,69.4,32.1,69.4"/>
	<path clip-path="url(#SVGID_2_)"  d="M56.3,84h-4.3c-1,0-1.8,0.8-1.8,1.8s0.8,1.8,1.8,1.8h4.3c1,0,1.8-0.8,1.8-1.8
		S57.3,84,56.3,84"/>
	<path clip-path="url(#SVGID_2_)"  d="M44.7,84H2.4c-1,0-1.8,0.8-1.8,1.8s0.8,1.8,1.8,1.8h42.4c1,0,1.8-0.8,1.8-1.8
		S45.7,84,44.7,84"/>
</g>
</svg>
