<svg xmlns="http://www.w3.org/2000/svg" width="46" height="42" viewBox="0 0 46 42">
  <metadata><?xpacket begin="﻿" id="W5M0MpCehiHzreSzNTczkc9d"?>
<x:xmpmeta xmlns:x="adobe:ns:meta/" x:xmptk="Adobe XMP Core 5.6-c138 79.159824, 2016/09/14-01:09:01        ">
   <rdf:RDF xmlns:rdf="http://www.w3.org/1999/02/22-rdf-syntax-ns#">
      <rdf:Description rdf:about=""/>
   </rdf:RDF>
</x:xmpmeta>
                                                                                                    
                                                                                                    
                                                                                                    
                                                                                                    
                                                                                                    
                                                                                                    
                                                                                                    
                                                                                                    
                                                                                                    
                                                                                                    
                                                                                                    
                                                                                                    
                                                                                                    
                                                                                                    
                                                                                                    
                                                                                                    
                                                                                                    
                                                                                                    
                                                                                                    
                                                                                                    
                           
<?xpacket end="w"?></metadata>
<defs>
    <style>
      .cls-1 {
        fill: #fff;
        fill-rule: evenodd;
      }
    </style>
  </defs>
  <path id="Shopping_Cart" data-name="Shopping Cart" class="cls-1" d="M130.407,1343h-29.86l-7.619-27H87.992v-3h7.254l7.619,27h25l2.494-13.5H106.277v-3.01h27.731Zm-25.653,12a4.5,4.5,0,1,1,4.571-4.5A4.542,4.542,0,0,1,104.754,1355Zm0-6a1.5,1.5,0,1,0,1.523,1.5A1.512,1.512,0,0,0,104.754,1349Zm19.809,6a4.5,4.5,0,1,1,4.572-4.5A4.542,4.542,0,0,1,124.563,1355Zm0-6a1.5,1.5,0,1,0,1.524,1.5A1.512,1.512,0,0,0,124.563,1349Zm-12.19-12h-3.048v-7.5h3.048v7.5Zm9.143,0h-3.048v-7.5h3.048v7.5Z" transform="translate(-88 -1313)"/>
</svg>
