
<svg version="1.1" id="Layer_1" xmlns="http://www.w3.org/2000/svg" xmlns:xlink="http://www.w3.org/1999/xlink" x="0px" y="0px"
	 viewBox="0 0 52.5 81.3" enable-background="new 0 0 52.5 81.3" xml:space="preserve">
<g>

	<clipPath id="SVGID_2_">
		<use xlink:href="#SVGID_1_"  overflow="visible"/>
	</clipPath>
	<path clip-path="url(#SVGID_2_)" d="M26.3,0C11.9,0,0.1,11.7,0,26.1c0,0.5,0.2,0.9,0.5,1.2c0.3,0.3,0.8,0.5,1.2,0.5
		h8.8l3,9.4c0.2,0.7,0.9,1.2,1.7,1.2h22.1c0.8,0,1.4-0.5,1.7-1.2l3-9.4h8.8c0.5,0,0.9-0.2,1.2-0.5c0.3-0.3,0.5-0.8,0.5-1.2
		C52.4,11.7,40.7,0,26.3,0 M40.7,24.4c-0.8,0-1.4,0.5-1.7,1.2L36,35H16.5l-3-9.4c-0.2-0.7-0.9-1.2-1.7-1.2H3.6
		c1-11.7,10.8-20.9,22.7-20.9c11.9,0,21.7,9.2,22.7,20.9H40.7z"/>
	<path clip-path="url(#SVGID_2_)" d="M12.7,46.6c-1,0-1.8,0.8-1.8,1.8c0,1,0.8,1.8,1.8,1.8c0.9,0,1.5,0.5,2,0.9
		c1.1,1.1,1.8,3.1,1.8,5.2c0,4.1-2,5.2-4.7,6.1c-2.3,0.8-7,2.4-7,9.4c0,3,1,5.8,2.8,7.7c1.3,1.3,2.8,2,4.4,2c1,0,1.8-0.8,1.8-1.8
		c0-1-0.8-1.8-1.8-1.8c-0.9,0-1.5-0.5-2-0.9c-1.1-1.1-1.8-3.1-1.8-5.2c0-4.1,2-5.2,4.7-6.1c2.3-0.8,7-2.4,7-9.4c0-3-1-5.8-2.8-7.7
		C15.9,47.3,14.4,46.6,12.7,46.6"/>
	<path clip-path="url(#SVGID_2_)" d="M40.7,62.3c-2.7-0.9-4.7-2-4.7-6.1c0-2,0.7-4,1.8-5.2c0.4-0.4,1.1-0.9,2-0.9
		c1,0,1.8-0.8,1.8-1.8s-0.8-1.8-1.8-1.8c-1.6,0-3.2,0.7-4.4,2c-1.8,1.8-2.8,4.7-2.8,7.6c0,6.9,4.8,8.6,7,9.4c2.7,0.9,4.7,2,4.7,6.1
		c0,2-0.7,4-1.8,5.2c-0.4,0.4-1.1,0.9-2,0.9c-1,0-1.8,0.8-1.8,1.8c0,1,0.8,1.8,1.8,1.8c1.6,0,3.2-0.7,4.4-2c1.8-1.8,2.8-4.7,2.8-7.6
		C47.7,64.7,43,63.1,40.7,62.3"/>
	<path clip-path="url(#SVGID_2_)" d="M26.3,46.6c-1,0-1.8,0.8-1.8,1.8v31.1c0,1,0.8,1.8,1.8,1.8c1,0,1.8-0.8,1.8-1.8
		V48.4C28,47.4,27.2,46.6,26.3,46.6"/>
</g>
</svg>
