<svg xmlns="http://www.w3.org/2000/svg" xmlns:xlink="http://www.w3.org/1999/xlink"><symbol preserveAspectRatio="xMidYMid" viewBox="0 0 15 20" id="anchor2">
  <defs>
    <style>.acls-1{fill:#4b586d;fill-rule:evenodd}</style>
  </defs>
  <path d="M7.500,-0.001 C3.364,-0.001 -0.001,3.472 -0.001,7.741 C-0.001,10.525 1.426,13.057 3.750,14.441 L3.750,15.170 C3.372,15.465 3.124,15.927 3.124,16.452 C3.124,16.817 3.246,17.150 3.444,17.420 C3.246,17.690 3.124,18.023 3.124,18.387 C3.124,19.277 3.825,20.000 4.687,20.000 L10.313,20.000 C11.175,20.000 11.875,19.277 11.875,18.387 C11.875,18.023 11.753,17.690 11.555,17.420 C11.754,17.149 11.875,16.816 11.875,16.452 C11.875,15.927 11.628,15.464 11.250,15.169 L11.250,14.440 C13.574,13.056 15.001,10.525 15.001,7.741 C15.001,3.472 11.636,-0.001 7.500,-0.001 ZM10.313,18.710 L4.687,18.710 C4.515,18.710 4.375,18.565 4.375,18.387 C4.375,18.210 4.515,18.065 4.687,18.065 L10.313,18.065 C10.485,18.065 10.625,18.210 10.625,18.387 C10.626,18.565 10.485,18.710 10.313,18.710 ZM10.313,16.775 L4.687,16.775 C4.515,16.775 4.375,16.629 4.375,16.452 C4.375,16.274 4.515,16.129 4.687,16.129 L10.313,16.129 C10.485,16.129 10.625,16.274 10.625,16.452 C10.625,16.629 10.485,16.775 10.313,16.775 ZM10.340,13.482 L10.000,13.663 L10.000,14.839 L8.125,14.839 L8.125,10.230 C9.201,9.942 10.000,8.940 10.000,7.741 C10.000,6.318 8.879,5.160 7.500,5.160 C6.121,5.160 5.000,6.318 5.000,7.741 C5.000,8.940 5.799,9.942 6.875,10.230 L6.875,14.839 L5.000,14.839 L5.000,13.663 L4.660,13.483 C2.556,12.372 1.249,10.172 1.249,7.741 C1.249,4.184 4.053,1.289 7.500,1.289 C10.947,1.289 13.751,4.184 13.751,7.741 C13.751,10.172 12.444,12.372 10.340,13.482 ZM7.500,9.032 C6.811,9.032 6.250,8.453 6.250,7.741 C6.250,7.030 6.810,6.451 7.500,6.451 C8.190,6.451 8.750,7.030 8.750,7.741 C8.750,8.453 8.190,9.032 7.500,9.032 Z" class="acls-1"/>
</symbol><symbol preserveAspectRatio="xMidYMid" viewBox="0 0 16 16" id="anchor3">
  <defs>
    <style>.bcls-1{fill:#4b586d;fill-rule:evenodd}</style>
  </defs>
  <path d="M14.047,2.720 L12.108,2.720 C12.098,1.218 10.873,-0.000 9.368,-0.000 L6.629,-0.000 C5.127,-0.000 3.902,1.218 3.892,2.720 L1.953,2.720 C0.875,2.720 0.000,3.595 0.000,4.673 L0.000,14.047 C0.000,15.125 0.875,16.000 1.953,16.000 L14.047,16.000 C15.125,16.000 16.000,15.125 16.000,14.047 L16.000,4.673 C16.000,3.595 15.122,2.720 14.047,2.720 ZM11.824,4.052 L11.824,14.668 L4.176,14.668 L4.176,4.052 L11.824,4.052 ZM6.629,1.332 L9.368,1.332 C10.136,1.332 10.762,1.953 10.772,2.717 L5.225,2.717 C5.234,1.953 5.861,1.332 6.629,1.332 ZM1.332,14.047 L1.332,4.673 C1.332,4.330 1.610,4.052 1.953,4.052 L2.844,4.052 L2.844,14.668 L1.953,14.668 C1.610,14.668 1.332,14.390 1.332,14.047 ZM14.664,14.047 C14.664,14.390 14.387,14.668 14.044,14.668 L13.156,14.668 L13.156,4.052 L14.047,4.052 C14.390,4.052 14.668,4.330 14.668,4.673 L14.668,14.047 L14.664,14.047 Z" class="bcls-1"/>
</symbol><symbol preserveAspectRatio="xMidYMid" viewBox="0 0 17 14" id="anchor4">
  <defs>
    <style>.ccls-1{fill:#4b586d;fill-rule:evenodd}</style>
  </defs>
  <path d="M16.400,11.515 L6.715,11.515 L3.497,13.886 C3.394,13.957 3.262,14.000 3.131,14.000 C3.043,14.000 2.955,13.986 2.867,13.943 C2.663,13.844 2.531,13.645 2.531,13.418 L2.531,11.501 L0.600,11.501 C0.278,11.501 0.000,11.246 0.000,10.919 L0.000,0.582 C0.000,0.256 0.263,-0.000 0.600,-0.000 L16.400,-0.000 C16.737,-0.000 17.000,0.256 17.000,0.582 L17.000,10.933 C17.000,11.260 16.737,11.515 16.400,11.515 ZM15.786,1.164 L1.200,1.164 L1.200,10.337 L3.131,10.337 C3.467,10.337 3.731,10.592 3.731,10.919 L3.731,12.239 L6.145,10.450 C6.247,10.379 6.379,10.337 6.510,10.337 L15.786,10.337 L15.786,1.164 ZM3.584,7.156 C3.584,6.830 3.848,6.574 4.184,6.574 L12.816,6.574 C13.152,6.574 13.416,6.830 13.416,7.156 C13.416,7.483 13.152,7.738 12.816,7.738 L4.184,7.738 C3.848,7.738 3.584,7.483 3.584,7.156 ZM12.816,4.927 L4.184,4.927 C3.848,4.927 3.584,4.671 3.584,4.345 C3.584,4.018 3.848,3.763 4.184,3.763 L12.816,3.763 C13.152,3.763 13.416,4.018 13.416,4.345 C13.416,4.671 13.152,4.927 12.816,4.927 Z" class="ccls-1"/>
</symbol><symbol preserveAspectRatio="xMidYMid" viewBox="0 0 15 19" id="anchor5">
  <defs>
    <style>.dcls-1{fill:#4b586d;fill-rule:evenodd}</style>
  </defs>
  <path d="M14.867,9.046 C14.863,9.074 14.847,9.157 14.816,9.301 C14.702,9.819 14.533,10.320 14.314,10.803 C13.506,12.734 11.726,15.702 7.833,18.880 C7.735,18.960 7.618,19.000 7.500,19.000 C7.382,19.000 7.265,18.960 7.167,18.880 C3.270,15.702 1.494,12.734 0.686,10.803 C0.467,10.320 0.298,9.815 0.184,9.301 C0.153,9.157 0.137,9.074 0.133,9.046 C0.043,8.576 0.000,8.094 0.000,7.616 C0.000,3.418 3.364,-0.000 7.496,-0.000 C11.628,-0.000 14.992,3.418 15.000,7.616 C15.000,8.094 14.953,8.576 14.867,9.046 ZM7.496,1.072 C3.948,1.072 1.059,4.007 1.059,7.612 C1.059,8.030 1.098,8.445 1.176,8.855 C1.176,8.867 1.180,8.875 1.180,8.883 C1.184,8.902 1.192,8.962 1.215,9.054 C1.215,9.058 1.215,9.058 1.215,9.062 C1.317,9.508 1.462,9.946 1.651,10.361 C1.655,10.364 1.655,10.372 1.658,10.376 C2.392,12.141 3.999,14.834 7.496,17.769 C10.993,14.834 12.601,12.141 13.334,10.376 C13.338,10.372 13.338,10.364 13.342,10.361 C13.534,9.942 13.679,9.508 13.777,9.062 C13.777,9.058 13.777,9.058 13.777,9.054 C13.796,8.962 13.808,8.902 13.812,8.883 C13.812,8.875 13.816,8.867 13.816,8.859 C13.894,8.452 13.934,8.034 13.934,7.612 C13.934,4.007 11.044,1.072 7.496,1.072 ZM7.496,12.535 C4.873,12.535 2.737,10.364 2.737,7.700 C2.737,5.035 4.873,2.864 7.496,2.864 C10.119,2.864 12.256,5.035 12.256,7.700 C12.256,10.364 10.119,12.535 7.496,12.535 ZM7.496,3.939 C5.457,3.939 3.795,5.628 3.795,7.700 C3.795,9.771 5.453,11.460 7.496,11.460 C9.539,11.460 11.197,9.771 11.197,7.700 C11.197,5.628 9.535,3.939 7.496,3.939 Z" class="dcls-1"/>
</symbol><symbol preserveAspectRatio="xMidYMid" viewBox="0 0 18 19" id="career">
  <defs>
    <style>.ecls-1{fill:#4b586d;fill-rule:evenodd}</style>
  </defs>
  <path d="M9.745,8.388 C9.555,8.204 9.555,7.903 9.745,7.718 L15.099,2.509 L14.696,2.553 C14.428,2.582 14.189,2.394 14.159,2.134 C14.129,1.874 14.322,1.640 14.590,1.611 L16.366,1.418 C16.458,1.406 16.557,1.420 16.645,1.461 C16.821,1.543 16.929,1.719 16.929,1.907 L16.929,1.907 C16.929,1.907 16.929,1.907 16.929,1.908 C16.929,1.919 16.919,1.929 16.918,1.940 L16.710,3.676 C16.680,3.937 16.440,4.124 16.172,4.095 C15.905,4.065 15.712,3.831 15.742,3.571 L15.787,3.179 L10.434,8.389 C10.339,8.481 10.214,8.527 10.089,8.527 C9.965,8.527 9.840,8.481 9.745,8.388 ZM1.912,3.202 C1.991,1.172 3.636,0.142 5.211,0.004 C5.286,-0.003 5.668,0.000 5.768,0.011 C6.251,0.062 6.738,0.197 7.182,0.418 C7.268,0.461 7.496,0.590 7.524,0.611 C8.340,1.133 8.946,1.990 8.992,3.202 C9.060,4.961 8.386,6.381 7.145,7.098 C6.623,7.400 6.037,7.551 5.452,7.551 C4.867,7.551 4.282,7.400 3.760,7.098 C2.518,6.381 1.845,4.960 1.912,3.202 ZM4.257,6.283 C4.994,6.709 5.910,6.709 6.647,6.283 C7.573,5.748 8.073,4.638 8.019,3.238 C7.995,2.627 7.778,2.145 7.445,1.782 C6.935,2.794 5.861,3.469 4.535,3.564 C4.267,3.583 4.033,3.387 4.014,3.126 C3.994,2.865 4.195,2.638 4.464,2.619 C5.303,2.559 6.270,2.154 6.642,1.211 C6.272,1.044 5.860,0.954 5.452,0.938 C4.214,0.986 2.944,1.715 2.886,3.238 C2.832,4.638 3.332,5.748 4.257,6.283 ZM18.000,9.664 L18.000,18.547 C18.000,18.809 17.780,19.000 17.511,19.000 L9.347,19.000 C9.078,19.000 8.845,18.809 8.845,18.547 L8.845,14.648 C8.845,14.386 9.078,14.166 9.347,14.166 L12.525,14.166 C12.794,14.166 13.033,14.386 13.033,14.648 L13.033,18.052 L14.542,18.052 L14.542,12.508 L12.351,12.508 L12.351,12.907 C12.351,13.168 12.133,13.380 11.864,13.380 C11.595,13.380 11.377,13.168 11.377,12.907 L11.377,12.053 C11.377,11.791 11.571,11.560 11.840,11.560 L15.018,11.560 C15.287,11.560 15.516,11.791 15.516,12.053 L15.516,18.052 L17.026,18.052 L17.026,10.138 L14.835,10.138 L14.835,10.287 C14.835,10.549 14.617,10.761 14.348,10.761 C14.079,10.761 13.861,10.549 13.861,10.287 L13.861,9.664 C13.861,9.402 14.064,9.190 14.333,9.190 L17.511,9.190 C17.780,9.190 18.000,9.402 18.000,9.664 ZM12.059,15.114 L9.819,15.114 L9.819,18.052 L12.059,18.052 L12.059,15.114 ZM9.467,12.569 C9.731,12.522 9.906,12.275 9.858,12.018 L9.778,11.594 C9.377,9.487 7.335,8.527 5.480,8.527 C5.478,8.527 5.476,8.527 5.475,8.527 L5.468,8.527 C5.464,8.527 5.460,8.527 5.455,8.527 L5.455,8.527 C5.451,8.527 5.448,8.530 5.444,8.530 C3.590,8.541 1.551,9.490 1.150,11.596 L0.008,17.626 C-0.018,17.764 0.020,17.911 0.113,18.019 C0.205,18.128 0.343,18.194 0.487,18.194 L6.935,18.194 C7.204,18.194 7.422,17.982 7.422,17.720 C7.422,17.459 7.204,17.246 6.935,17.246 L1.072,17.246 L2.108,11.773 C2.409,10.194 4.013,9.484 5.470,9.483 C6.925,9.488 8.520,10.195 8.820,11.770 L8.900,12.190 C8.949,12.447 9.202,12.617 9.467,12.569 ZM5.976,11.702 C5.707,11.702 5.489,11.914 5.489,12.176 C5.489,12.437 5.707,12.649 5.976,12.649 L6.926,12.649 C7.195,12.649 7.413,12.437 7.413,12.175 C7.413,11.914 7.194,11.701 6.926,11.701 L5.976,11.702 Z" class="ecls-1"/>
</symbol><symbol viewBox="0 0 20 18" id="cart">

  <path id="fShopping_Cart" data-name="Shopping Cart" class="fcls-1" d="M473.438,3905.86H460.455l-3.312-11.58H455V3893h3.154l3.313,11.57h10.868l1.085-5.79H462.947v-1.28H475ZM462.284,3911a1.931,1.931,0,1,1,1.988-1.93A1.964,1.964,0,0,1,462.284,3911Zm0-2.57a0.64,0.64,0,1,0,.663.64A0.654,0.654,0,0,0,462.284,3908.43ZM470.9,3911a1.931,1.931,0,1,1,1.988-1.93A1.965,1.965,0,0,1,470.9,3911Zm0-2.57a0.64,0.64,0,1,0,.663.64A0.653,0.653,0,0,0,470.9,3908.43Zm-5.3-5.15h-1.325v-3.21H465.6v3.21Zm3.975,0h-1.325v-3.21h1.325v3.21Z" transform="translate(-455 -3893)"/>
</symbol><symbol preserveAspectRatio="xMidYMid" viewBox="0 0 34 34" id="circle">
  <defs>
    <style>.gcls-1{fill:#4b586d;fill-rule:evenodd}</style>
  </defs>
  <path d="M17.000,-0.000 C26.374,-0.000 34.000,7.626 34.000,17.000 C34.000,21.724 32.010,26.274 28.540,29.484 C28.259,29.743 27.821,29.725 27.562,29.445 C27.302,29.165 27.319,28.727 27.600,28.468 C30.788,25.519 32.616,21.340 32.616,17.000 C32.616,8.389 25.611,1.384 17.000,1.384 C8.389,1.384 1.384,8.389 1.384,17.000 C1.384,25.611 8.389,32.616 17.000,32.616 C17.382,32.616 17.692,32.926 17.692,33.308 C17.692,33.690 17.382,34.000 17.000,34.000 C7.626,34.000 0.000,26.374 0.000,17.000 C0.000,7.626 7.626,-0.000 17.000,-0.000 Z" class="gcls-1"/>
</symbol><symbol preserveAspectRatio="xMidYMid" viewBox="0 0 44 44" id="close">
  <defs>
    <style>.hcls-1{fill:#4b586d;fill-rule:evenodd}</style>
  </defs>
  <path d="M25.014,23.897 L32.063,30.797 C32.416,31.143 32.423,31.710 32.077,32.063 C31.901,32.242 31.669,32.332 31.437,32.332 C31.211,32.332 30.985,32.247 30.810,32.077 L23.761,25.177 C23.408,24.831 23.402,24.264 23.748,23.911 C24.094,23.558 24.660,23.551 25.014,23.897 ZM18.681,19.947 L11.930,13.196 C11.580,12.847 11.580,12.280 11.930,11.930 C12.280,11.580 12.847,11.580 13.196,11.930 L19.947,18.681 C20.297,19.030 20.297,19.597 19.947,19.947 C19.772,20.122 19.543,20.209 19.314,20.209 C19.085,20.209 18.855,20.122 18.681,19.947 ZM32.070,11.930 C32.420,12.280 32.420,12.847 32.070,13.196 L13.196,32.070 C13.021,32.245 12.792,32.332 12.563,32.332 C12.334,32.332 12.105,32.245 11.930,32.070 C11.580,31.720 11.580,31.153 11.930,30.804 L30.804,11.930 C31.153,11.580 31.720,11.580 32.070,11.930 ZM42.526,29.934 C42.347,30.395 41.829,30.624 41.368,30.446 C40.906,30.268 40.677,29.749 40.855,29.288 C41.754,26.965 42.209,24.513 42.209,22.000 C42.209,10.857 33.143,1.791 22.000,1.791 C10.857,1.791 1.791,10.857 1.791,22.000 C1.791,33.143 10.857,42.209 22.000,42.209 C27.249,42.209 32.222,40.207 36.004,36.570 C36.361,36.227 36.928,36.239 37.270,36.595 C37.613,36.951 37.602,37.518 37.245,37.861 C33.128,41.820 27.714,44.000 22.000,44.000 C9.869,44.000 -0.000,34.131 -0.000,22.000 C-0.000,9.869 9.869,0.000 22.000,0.000 C34.131,0.000 44.000,9.869 44.000,22.000 C44.000,24.735 43.504,27.404 42.526,29.934 Z" class="hcls-1"/>
</symbol><symbol id="left-text" viewBox="0 0 86.4 82.1" enable-background="new 0 0 86.4 82.1" xml:space="preserve">
<g>

	<path clip-path="url(#SVGID_2_)" d="M86.2,58.4c-1.3-2.5-4.7-8.3-8.9-8.6c-0.8-0.1-1.4,0-1.9,0.1
		c-1,0.2-1.4,0.2-2.7-1c-3.1-2.9-6.3-9.1-5.9-11.1l5.9-3c0.4-0.2,0.7-0.6,0.9-1c0.1-0.4,0.1-0.9-0.1-1.3
		C66.9,19.6,57,10.6,49.6,10.6c-1.4,0-2.7,0.3-3.8,0.9c-7.5,3.9-7,19.1,1,34.7c0.2,0.4,0.6,0.7,1,0.9c0.2,0.1,0.4,0.1,0.5,0.1
		c0.3,0,0.6-0.1,0.8-0.2l5.9-3c1.9,0.8,5.1,7,5.7,11.2c0.2,1.7-0.1,2-0.7,2.7c-0.4,0.4-0.8,0.8-1.2,1.5c-2.2,3.5,0.6,9.7,1.9,12.2
		c0.3,0.6,0.9,0.9,1.6,0.9c0.3,0,0.5-0.1,0.8-0.2c0.9-0.4,1.2-1.5,0.7-2.4c-2.2-4.3-2.7-7.6-2-8.7c0.2-0.3,0.4-0.6,0.7-0.9
		c1.2-1.2,2.1-2.5,1.7-5.6c-0.4-3.1-2.6-9.4-5.8-12.5l1-0.5l16.9,32.7c0.3,0.6,0.9,0.9,1.6,0.9c0.3,0,0.5-0.1,0.8-0.2
		c0.9-0.4,1.2-1.5,0.8-2.4L62.5,40.1l1-0.5c0.7,4.3,4.6,9.8,6.9,11.9c2.3,2.2,3.9,2.1,5.6,1.9c0.4-0.1,0.8-0.1,1.1-0.1
		c1.3,0.1,3.8,2.4,6,6.7c0.3,0.6,0.9,1,1.6,1c0.3,0,0.5-0.1,0.8-0.2C86.3,60.3,86.6,59.2,86.2,58.4 M49.1,43.1
		c-6.8-14.1-6.5-26-1.7-28.5c0.7-0.3,1.4-0.5,2.2-0.5c5,0,13.3,6.3,20,18.4L49.1,43.1z"/>
	<path clip-path="url(#SVGID_2_)" d="M28,46.5c0.9-0.4,1.2-1.5,0.8-2.4l-8.1-15.6c0.4,0.5,0.8,0.9,1.1,1.1
		c1.8,1.7,3.2,1.6,4.5,1.4c0.3,0,0.5-0.1,0.7-0.1c0.7,0,2.3,1.4,3.9,4.4c0.3,0.6,0.9,1,1.6,1c0.3,0,0.5-0.1,0.8-0.2
		c0.9-0.4,1.2-1.5,0.8-2.4c-0.9-1.8-3.5-6.1-6.8-6.3c-0.6,0-1.1,0.1-1.5,0.1c-0.7,0.1-0.8,0.1-1.5-0.5c-2.2-2-4.1-5.8-4-7.1l4.2-2.2
		c0.4-0.2,0.7-0.6,0.9-1c0.1-0.4,0.1-0.9-0.1-1.3C20.3,6.2,13.2,0,7.5,0C6.4,0,5.3,0.2,4.4,0.7c-5.9,3-5.8,14,0.1,25.4
		c0.2,0.4,0.6,0.7,1,0.9c0.2,0.1,0.4,0.1,0.5,0.1c0.3,0,0.6-0.1,0.8-0.2l4.2-2.2c1.1,0.7,3.1,4.4,3.5,7.4c0.1,1,0,1.1-0.5,1.6
		c-0.3,0.3-0.6,0.6-1,1.1c-1.8,2.8,0.2,7.4,1.2,9.2c0.3,0.6,0.9,0.9,1.6,0.9c0.3,0,0.5-0.1,0.8-0.2c0.9-0.4,1.2-1.5,0.7-2.4
		c-1.5-3-1.7-5.1-1.3-5.7c0.1-0.2,0.3-0.4,0.5-0.6c0.9-0.9,1.8-2,1.5-4.4c0-0.4-0.2-1-0.3-1.5l8.1,15.6c0.3,0.6,0.9,0.9,1.6,0.9
		C27.5,46.7,27.8,46.7,28,46.5 M6.8,23C2.4,13.6,2.8,5.5,6,3.9c0.5-0.2,1-0.4,1.6-0.4c3.4,0,9.1,4.1,13.6,12.1L6.8,23z"/>
	<path clip-path="url(#SVGID_2_)" d="M12.6,70.9c-3.1,0-5.6,2.5-5.6,5.6s2.5,5.6,5.6,5.6c3.1,0,5.6-2.5,5.6-5.6
		S15.7,70.9,12.6,70.9 M12.6,78.6c-1.2,0-2.1-0.9-2.1-2.1c0-1.2,0.9-2.1,2.1-2.1c1.2,0,2.1,0.9,2.1,2.1
		C14.7,77.6,13.8,78.6,12.6,78.6"/>
	<path clip-path="url(#SVGID_2_)" d="M36.5,49.5c-5.7,0-10.3,4.6-10.3,10.3c0,5.7,4.6,10.3,10.3,10.3
		c5.7,0,10.3-4.6,10.3-10.3C46.9,54.1,42.2,49.5,36.5,49.5 M36.5,66.6c-3.8,0-6.8-3.1-6.8-6.8c0-3.8,3.1-6.8,6.8-6.8
		c3.8,0,6.8,3.1,6.8,6.8C43.4,63.5,40.3,66.6,36.5,66.6"/>
	<path clip-path="url(#SVGID_2_)" d="M73.5,12.4c2,0,3.7-1.8,3.7-4c0-2.2-1.6-4-3.7-4c-2,0-3.7,1.8-3.7,4
		C69.9,10.6,71.5,12.4,73.5,12.4 M73.5,7.9c0.1,0,0.2,0.2,0.2,0.5c0,0.3-0.1,0.4-0.2,0.5c-0.1-0.1-0.2-0.2-0.2-0.5
		C73.4,8.1,73.5,8,73.5,7.9"/>
</g>
</symbol><symbol preserveAspectRatio="xMidYMid" viewBox="0 0 43 49" id="play">
  <defs>
    <style>.jcls-1{fill:#59d556;fill-rule:evenodd}</style>
  </defs>
  <path d="M38.850,17.066 C38.124,16.617 37.170,16.837 36.718,17.557 C36.267,18.278 36.488,19.226 37.213,19.675 C38.900,20.721 39.907,22.525 39.907,24.500 C39.907,26.476 38.900,28.280 37.213,29.326 L11.842,45.047 C10.052,46.156 7.882,46.211 6.038,45.194 C4.194,44.177 3.093,42.318 3.093,40.222 L3.093,8.778 C3.093,6.682 4.194,4.824 6.038,3.806 C7.882,2.789 10.052,2.844 11.842,3.953 L26.611,13.105 C27.336,13.554 28.290,13.335 28.742,12.614 C29.194,11.894 28.973,10.946 28.248,10.496 L13.479,1.344 C10.721,-0.364 7.379,-0.449 4.537,1.118 C1.696,2.685 -0.000,5.549 -0.000,8.778 L-0.000,40.222 C-0.000,43.452 1.696,46.315 4.537,47.882 C5.891,48.628 7.357,49.000 8.821,49.000 C10.430,49.000 12.035,48.550 13.479,47.656 L38.850,31.934 C41.449,30.323 43.000,27.544 43.000,24.500 C43.000,21.456 41.449,18.677 38.850,17.066 Z" class="jcls-1"/>
</symbol><symbol preserveAspectRatio="xMidYMid" viewBox="0 0 18 18" id="price">
  <defs>
    <style>.kcls-1{fill:#4b586d;fill-rule:evenodd}</style>
  </defs>
  <path d="M17.111,0.887 C16.570,0.346 15.824,0.033 15.011,0.003 C14.238,-0.027 13.447,0.189 12.731,0.630 C12.414,0.824 12.313,1.238 12.507,1.552 C12.701,1.869 13.115,1.970 13.429,1.775 C14.403,1.179 15.526,1.205 16.160,1.839 C16.533,2.212 16.705,2.753 16.641,3.361 C16.574,4.022 16.249,4.671 15.727,5.194 C15.205,5.716 14.552,6.040 13.895,6.108 C13.287,6.167 12.746,5.996 12.373,5.626 C12.130,5.384 11.809,5.253 11.470,5.253 C11.127,5.253 10.806,5.387 10.563,5.626 C10.321,5.869 10.190,6.190 10.190,6.533 C10.190,6.877 10.324,7.197 10.567,7.440 C10.809,7.683 11.130,7.813 11.470,7.813 C11.813,7.813 12.134,7.679 12.376,7.440 C12.429,7.388 12.477,7.332 12.518,7.272 C12.873,7.399 13.253,7.466 13.656,7.466 C13.779,7.466 13.906,7.458 14.033,7.447 C14.044,7.447 14.056,7.444 14.067,7.444 L14.182,9.119 C14.209,9.500 14.067,9.873 13.798,10.145 L7.541,16.396 C7.190,16.746 6.616,16.746 6.265,16.396 L1.604,11.735 C1.433,11.563 1.340,11.336 1.340,11.097 C1.340,10.854 1.433,10.630 1.604,10.459 L7.858,4.205 C8.127,3.936 8.500,3.794 8.880,3.820 L14.436,4.190 C14.805,4.216 15.126,3.936 15.152,3.563 C15.179,3.193 14.899,2.872 14.526,2.846 L8.970,2.477 C8.205,2.425 7.451,2.708 6.910,3.253 L0.657,9.507 C0.231,9.933 0.000,10.496 0.000,11.097 C0.000,11.698 0.235,12.261 0.657,12.686 L5.313,17.343 C5.750,17.780 6.328,18.000 6.903,18.000 C7.477,18.000 8.052,17.780 8.492,17.343 L14.746,11.089 C15.291,10.545 15.574,9.791 15.522,9.022 L15.388,7.059 C15.858,6.835 16.294,6.526 16.682,6.141 C17.421,5.402 17.884,4.462 17.981,3.496 C18.082,2.477 17.772,1.552 17.111,0.887 Z" class="kcls-1"/>
</symbol><symbol id="reserve-1" viewBox="0 0 85.4 76.4" enable-background="new 0 0 85.4 76.4" xml:space="preserve">
<g>

	<path clip-path="url(#SVGID_2_)" d="M3,67.1l5.4-5.4l5.5,5.6c0.1,0.1,0.2,0.2,0.4,0.3l1.3-3.6l-5.9-6
		c-0.3-0.3-0.8-0.5-1.2-0.5c-0.4,0-0.9,0.2-1.2,0.5l-6.6,6.6c-0.7,0.7-0.7,1.8,0,2.5C1.2,67.8,2.3,67.8,3,67.1"/>
	<path clip-path="url(#SVGID_2_)" d="M69.5,32.6c-0.2-0.7-0.9-1.2-1.6-1.2s-1.4,0.5-1.6,1.2l-6,16.6l-9.7-26.9
		c-0.3-0.7-0.9-1.2-1.6-1.2c-0.7,0-1.4,0.5-1.6,1.2l-9.8,27.2l-6.1-16.9c-0.2-0.7-0.9-1.2-1.6-1.2c-0.7,0-1.4,0.5-1.6,1.2L16.4,65
		c0,0,0,0,0,0l-2.8,7.8c0,0-2.8,0-3.6,0v-2.8l2.5,2.5l1.3-3.7l-4.1-4.2c-0.3-0.3-0.8-0.5-1.2-0.5c-0.4,0-0.9,0.2-1.2,0.5l-6.6,6.6
		c-0.7,0.7-0.7,1.8,0,2.5c0.7,0.7,1.8,0.7,2.5,0l3.5-3.5v4.3c0,0,0,0.1,0,0.1c0,1,0.8,1.7,1.7,1.7h0c2,0,4.1,0,6.1,0
		c5.1,0,10.1-0.1,15.2-0.1c5.3,0,10.5,0,15.8,0c2.3,0,4.6,0,7,0c5.2,0,10.5,0,15.7,0.1c-0.1,0-0.2,0-0.2,0h15c0.6,0,1.1-0.3,1.4-0.7
		c0.3-0.5,0.4-1.1,0.2-1.6L69.5,32.6z M67.8,38.4l2.5,7.1l-2.6,2.9l-2.6-2.8L67.8,38.4z M48.9,28l3.7,10.1l-3.8,4.2l-3.6-3.9
		L48.9,28z M29.7,38.4l2.6,7.1l-2.5,2.9l-2.6-2.9L29.7,38.4z M29,72.9H17.3l0-0.1l8.5-23.6l2.7,3c0.3,0.4,0.8,0.6,1.3,0.6h0
		c0.5,0,1-0.2,1.3-0.6l2.5-2.9l1.9,5.4L29,72.9z M51.7,72.9h-5.8H32.7l0,0h0l4.7-13l1.9-5.2l4.5-12.5l3.7,3.9
		c0.3,0.4,0.8,0.6,1.3,0.6h0c0.5,0,1-0.2,1.3-0.6l3.8-4.2l4.5,12.5l1.9,5.2L65,72.9H51.7z M71.9,72.9h-3.2h0l-6.6-18.5l1.8-5.1
		l2.6,2.9c0.3,0.4,0.8,0.6,1.3,0.6h0c0.5,0,1-0.2,1.3-0.6l2.6-3l8.5,23.6H71.9z"/>
	<path clip-path="url(#SVGID_2_)" d="M3,60.5l5.4-5.4l5.5,5.6c0.3,0.3,0.8,0.5,1.2,0.5c0.4,0,0.9-0.2,1.2-0.5
		c0.7-0.7,0.7-1.8,0-2.5l-6.7-6.8c-0.3-0.3-0.8-0.5-1.2-0.5c-0.4,0-0.9,0.2-1.2,0.5L0.5,58c-0.7,0.7-0.7,1.8,0,2.5
		C1.2,61.2,2.3,61.2,3,60.5"/>
	<path clip-path="url(#SVGID_2_)" d="M8,23.9c3.5,0,6.3-2.8,6.3-6.3c0-3.5-2.8-6.3-6.3-6.3s-6.3,2.8-6.3,6.3
		C1.6,21.1,4.5,23.9,8,23.9 M8,14.8c1.6,0,2.8,1.3,2.8,2.8c0,1.6-1.3,2.8-2.8,2.8s-2.8-1.3-2.8-2.8C5.1,16,6.4,14.8,8,14.8"/>
	<path clip-path="url(#SVGID_2_)" d="M65.1,3.4L65.1,3.4c0.1,0,5.1-0.1,7.8,2.7c0.3,0.3,0.8,0.5,1.2,0.5
		c0.1,0,0.2,0,0.3,0c0.1,0,0.2,0,0.3,0c0.4,0,0.9-0.2,1.2-0.5c2.7-2.7,7.7-2.7,7.8-2.7c0.9,0,1.7-0.7,1.7-1.6c0-0.9-0.7-1.7-1.6-1.7
		c-0.2,0-5.6-0.1-9.3,2.9c-3.8-3-9.1-2.9-9.3-2.9c-0.9,0-1.7,0.8-1.6,1.7C63.4,2.6,64.2,3.4,65.1,3.4"/>
	<path clip-path="url(#SVGID_2_)" d="M53.8,11.4c0,0,3.8,0,5.9,2.6c0.3,0.4,0.8,0.6,1.3,0.6c0.1,0,0.2,0,0.2,0
		c0.1,0,0.2,0,0.2,0c0.5,0,1-0.2,1.3-0.6c2.1-2.6,5.8-2.6,5.9-2.6c0.9,0,1.7-0.7,1.7-1.6c0-0.9-0.7-1.7-1.6-1.7
		c-0.2,0-4.4-0.1-7.5,2.7c-3.1-2.8-7.3-2.7-7.5-2.7c-0.9,0-1.7,0.8-1.6,1.7C52.1,10.7,52.9,11.5,53.8,11.4"/>
</g>
</symbol><symbol id="reserve-2" viewBox="0 0 58.1 87.5" enable-background="new 0 0 58.1 87.5" xml:space="preserve">
<g>

	<path clip-path="url(#SVGID_2_)" d="M15.9,11.6l3.7,18.1h-4.8c-0.5,0-0.9,0.2-1.3,0.6c-0.3,0.4-0.5,0.8-0.5,1.3
		l2.7,45.6c0,2.5,2.1,4.5,4.6,4.5h16.4c2.5,0,4.6-2,4.6-4.5L44,31.6c0-0.5-0.1-1-0.5-1.3c-0.3-0.4-0.8-0.6-1.3-0.6H23.2l-4-19.6
		C19,9.7,18.7,9.2,18.3,9L2.6,0.2C1.8-0.2,0.7,0.1,0.2,0.9c-0.5,0.8-0.2,1.9,0.7,2.4L15.9,11.6z M26.6,64c0.2,0.8,0.9,1.4,1.7,1.4
		c0.1,0,0.2,0,0.4,0c0.9-0.2,1.6-1.1,1.4-2.1l-6.2-30.1h16.5L40.1,38H28.3c-1,0-1.8,0.8-1.8,1.8c0,1,0.8,1.8,1.8,1.8h11.6L37.8,77
		c0,0,0,0.1,0,0.1c0,0.6-0.5,1.1-1.1,1.1H20.3c-0.6,0-1.1-0.5-1.1-1.1c0,0,0-0.1,0-0.1l-2.1-35.5h1.7c1,0,1.8-0.8,1.8-1.8
		c0-1-0.8-1.8-1.8-1.8h-1.9l-0.3-4.8h3.7L26.6,64z"/>
	<path clip-path="url(#SVGID_2_)" d="M34.1,55.5c2.6,0,4.7-2.1,4.7-4.7c0-2.6-2.1-4.7-4.7-4.7s-4.7,2.1-4.7,4.7
		C29.4,53.4,31.5,55.5,34.1,55.5 M34.1,49.7c0.6,0,1.2,0.5,1.2,1.2c0,0.6-0.5,1.2-1.2,1.2c-0.6,0-1.2-0.5-1.2-1.2
		C32.9,50.2,33.4,49.7,34.1,49.7"/>
	<path clip-path="url(#SVGID_2_)" d="M19,65.1c0,1.6,1.3,2.9,2.9,2.9c1.6,0,2.9-1.3,2.9-2.9c0-1.6-1.3-2.9-2.9-2.9
		C20.2,62.3,19,63.5,19,65.1 M21.8,64.5c0.4,0,0.6,0.3,0.6,0.6c0,0.4-0.3,0.6-0.6,0.6c-0.4,0-0.6-0.3-0.6-0.6
		C21.2,64.7,21.5,64.5,21.8,64.5"/>
	<path clip-path="url(#SVGID_2_)" d="M32.1,76.9c3,0,5.5-2.5,5.5-5.5c0-3-2.5-5.5-5.5-5.5s-5.5,2.5-5.5,5.5
		C26.6,74.4,29.1,76.9,32.1,76.9 M32.1,69.4c1.1,0,2,0.9,2,2c0,1.1-0.9,2-2,2c-1.1,0-2-0.9-2-2C30.1,70.3,31,69.4,32.1,69.4"/>
	<path clip-path="url(#SVGID_2_)" d="M56.3,84h-4.3c-1,0-1.8,0.8-1.8,1.8s0.8,1.8,1.8,1.8h4.3c1,0,1.8-0.8,1.8-1.8
		S57.3,84,56.3,84"/>
	<path clip-path="url(#SVGID_2_)" d="M44.7,84H2.4c-1,0-1.8,0.8-1.8,1.8s0.8,1.8,1.8,1.8h42.4c1,0,1.8-0.8,1.8-1.8
		S45.7,84,44.7,84"/>
</g>
</symbol><symbol preserveAspectRatio="xMidYMid" viewBox="0 0 10 5" id="scroll-arrow">
  <defs>
    <style>.ncls-1{fill:#429b46;fill-rule:evenodd}</style>
  </defs>
  <path d="M0.000,0.000 L2.000,0.000 L5.000,3.000 L8.000,0.000 L10.000,0.000 L5.000,5.000 L0.000,0.000 Z" class="ncls-1"/>
</symbol><symbol preserveAspectRatio="xMidYMid" viewBox="0 0 15 20" id="services">
  <defs>
    <style>.ocls-1{fill:#4b586d;fill-rule:evenodd}</style>
  </defs>
  <path d="M7.500,-0.001 C3.364,-0.001 -0.001,3.472 -0.001,7.742 C-0.001,10.525 1.426,13.057 3.749,14.441 L3.749,15.170 C3.372,15.465 3.124,15.927 3.124,16.452 C3.124,16.817 3.246,17.150 3.444,17.420 C3.246,17.690 3.124,18.023 3.124,18.388 C3.124,19.277 3.825,20.001 4.687,20.001 L10.313,20.001 C11.175,20.001 11.875,19.277 11.875,18.388 C11.875,18.023 11.753,17.690 11.555,17.420 C11.754,17.149 11.875,16.817 11.875,16.452 C11.875,15.927 11.628,15.464 11.250,15.169 L11.250,14.440 C13.574,13.056 15.001,10.525 15.001,7.741 C15.001,3.472 11.636,-0.001 7.500,-0.001 ZM10.313,18.710 L4.687,18.710 C4.515,18.710 4.375,18.565 4.375,18.387 C4.375,18.210 4.515,18.065 4.687,18.065 L10.313,18.065 C10.485,18.065 10.625,18.210 10.625,18.387 C10.626,18.565 10.485,18.710 10.313,18.710 ZM10.313,16.774 L4.687,16.774 C4.515,16.774 4.375,16.629 4.375,16.452 C4.375,16.274 4.515,16.129 4.687,16.129 L10.313,16.129 C10.485,16.129 10.625,16.274 10.625,16.452 C10.625,16.629 10.485,16.774 10.313,16.774 ZM10.340,13.483 L10.000,13.663 L10.000,14.839 L8.125,14.839 L8.125,10.231 C9.201,9.942 10.000,8.940 10.000,7.741 C10.000,6.318 8.879,5.161 7.500,5.161 C6.121,5.161 5.000,6.318 5.000,7.741 C5.000,8.940 5.799,9.942 6.875,10.231 L6.875,14.839 L5.000,14.839 L5.000,13.663 L4.660,13.483 C2.556,12.372 1.249,10.172 1.249,7.741 C1.249,4.184 4.053,1.289 7.500,1.289 C10.947,1.289 13.751,4.184 13.751,7.741 C13.751,10.172 12.444,12.372 10.340,13.483 ZM7.500,9.032 C6.811,9.032 6.250,8.453 6.250,7.742 C6.250,7.030 6.810,6.451 7.500,6.451 C8.189,6.451 8.750,7.030 8.750,7.742 C8.750,8.453 8.190,9.032 7.500,9.032 Z" class="ocls-1"/>
</symbol><symbol viewBox="0 0 14 12" id="slider-arrow-next"><style>.ppath{fill:#fff}</style><path class="ppath" d="M.5 6.99h11.72l-4.58 4.17a.49.49 0 1 0 .7.69l5.47-4.99c.01-.01.03 0 .05-.02.1-.1.14-.22.14-.35a.48.48 0 0 0-.14-.36l-.05-.02-5.48-4.99a.49.49 0 0 0-.69.69l4.58 4.18H.5a.5.5 0 0 0-.5.5c0 .27.22.5.5.5z"/></symbol><symbol viewBox="0 0 14 12" id="slider-arrow-prev"><style>.qpath{fill:#fff}</style><path class="qpath" d="M13.5 6.99H1.77l4.59 4.17a.49.49 0 1 1-.7.69L.2 6.86c-.01-.01-.03 0-.05-.02A.47.47 0 0 1 0 6.49c0-.13.04-.26.14-.36l.05-.02 5.48-4.99a.49.49 0 0 1 .69.69L1.77 5.99H13.5c.28 0 .5.22.5.5a.5.5 0 0 1-.5.5z"/></symbol><symbol preserveAspectRatio="xMidYMid" viewBox="0 0 23 16" id="team-icon">
  <defs>
    <style>.rcls-1{fill:#4b586d;fill-rule:evenodd}</style>
  </defs>
  <path d="M22.521,13.000 L19.704,13.000 L19.704,12.000 L21.980,12.000 C21.810,11.325 21.301,10.784 20.627,10.608 L18.738,10.115 C18.567,10.071 18.433,9.930 18.389,9.751 L18.174,8.853 C18.131,8.673 18.186,8.483 18.319,8.360 C18.752,7.955 19.050,7.327 19.095,6.722 C19.115,6.462 19.323,6.261 19.573,6.261 L19.690,5.323 C19.560,5.322 19.446,5.278 19.356,5.178 C19.267,5.079 19.231,4.960 19.237,4.824 L19.292,3.627 C19.298,3.503 19.348,3.386 19.432,3.298 L19.661,3.059 C19.728,2.984 19.835,2.866 19.599,2.491 C19.392,2.160 19.018,2.000 18.456,2.000 C18.109,2.000 17.812,2.047 17.543,2.143 C17.291,2.232 17.020,2.093 16.935,1.833 C16.848,1.572 16.982,1.287 17.232,1.198 C17.602,1.065 18.002,1.001 18.457,1.001 C19.575,1.001 20.133,1.514 20.402,1.944 C20.966,2.844 20.612,3.466 20.350,3.757 L20.242,3.870 L20.212,4.501 C20.289,4.551 20.358,4.613 20.418,4.685 C20.593,4.894 20.674,5.172 20.640,5.448 L20.526,6.404 C20.485,6.742 20.281,7.023 20.003,7.163 C19.885,7.799 19.589,8.411 19.170,8.887 L19.249,9.219 L20.859,9.639 C22.119,9.968 23.000,11.144 23.000,12.500 C23.000,12.776 22.785,13.000 22.521,13.000 ZM16.380,11.774 C18.021,12.202 19.167,13.733 19.167,15.499 C19.167,15.775 18.952,15.999 18.687,15.999 L4.312,16.000 C4.185,16.000 4.063,15.947 3.973,15.854 C3.883,15.761 3.833,15.633 3.833,15.500 C3.833,13.734 4.979,12.202 6.620,11.774 L8.917,11.175 L9.089,10.460 C8.522,9.820 8.124,8.982 7.976,8.123 C7.571,7.992 7.260,7.623 7.206,7.165 L7.049,5.861 C7.010,5.533 7.108,5.204 7.317,4.956 C7.419,4.835 7.544,4.739 7.683,4.673 C7.639,4.269 7.583,3.709 7.583,3.436 C7.583,2.178 7.944,0.734 10.723,0.657 C11.686,-0.000 12.701,-0.000 13.144,-0.000 C14.306,-0.000 15.149,0.405 15.651,1.204 C16.355,2.327 15.921,3.094 15.599,3.451 L15.407,3.652 L15.358,4.694 C15.482,4.760 15.594,4.850 15.687,4.962 C15.893,5.209 15.989,5.536 15.949,5.861 L15.793,7.165 C15.742,7.594 15.466,7.945 15.099,8.095 C14.952,8.994 14.531,9.865 13.926,10.520 L14.083,11.175 L16.380,11.774 ZM13.074,9.989 C13.696,9.407 14.124,8.505 14.191,7.635 C14.211,7.375 14.419,7.175 14.669,7.175 C14.773,7.175 14.835,7.118 14.845,7.042 L15.001,5.737 C15.007,5.682 14.985,5.643 14.966,5.620 C14.950,5.601 14.914,5.568 14.857,5.568 C14.727,5.567 14.603,5.510 14.514,5.411 C14.425,5.312 14.378,5.180 14.384,5.044 L14.459,3.412 C14.465,3.288 14.515,3.170 14.599,3.082 L14.912,2.756 C15.022,2.634 15.246,2.385 14.849,1.753 C14.532,1.247 13.974,1.001 13.144,1.001 C12.742,1.001 11.902,1.001 11.154,1.560 C11.074,1.620 10.978,1.652 10.880,1.653 C8.543,1.677 8.543,2.652 8.543,3.435 C8.543,3.745 8.646,4.672 8.686,5.003 C8.704,5.146 8.661,5.289 8.570,5.396 C8.479,5.504 8.349,5.565 8.211,5.565 C8.088,5.565 8.053,5.597 8.037,5.616 C8.020,5.636 7.994,5.677 8.001,5.736 L8.156,7.040 C8.165,7.116 8.227,7.173 8.301,7.173 L8.403,7.173 C8.653,7.173 8.861,7.373 8.881,7.633 C8.946,8.490 9.345,9.354 9.947,9.943 C10.073,10.067 10.127,10.253 10.084,10.429 L9.777,11.708 C9.735,11.887 9.600,12.027 9.428,12.072 L6.852,12.744 C5.797,13.019 5.019,13.912 4.834,14.999 L18.167,15.000 C17.982,13.913 17.204,13.019 16.149,12.744 L13.573,12.072 C13.401,12.028 13.267,11.887 13.224,11.709 L12.930,10.483 C12.887,10.303 12.942,10.113 13.074,9.989 ZM6.534,2.025 C6.145,2.068 5.838,2.183 5.569,2.384 C5.489,2.444 5.392,2.476 5.295,2.477 C3.707,2.493 3.707,3.082 3.707,3.651 C3.707,3.846 3.771,4.449 3.812,4.784 C3.830,4.927 3.787,5.070 3.696,5.177 C3.605,5.285 3.475,5.346 3.337,5.346 L3.424,6.278 C3.674,6.278 3.936,6.459 3.956,6.719 C4.001,7.315 4.278,7.915 4.698,8.325 C4.824,8.449 4.877,8.635 4.835,8.811 L4.611,9.749 C4.568,9.928 4.433,10.068 4.262,10.113 L2.373,10.606 C1.700,10.782 1.191,11.323 1.020,11.997 L3.297,12.000 C3.561,12.000 3.776,12.224 3.776,12.500 C3.776,12.776 3.561,13.000 3.297,13.000 L0.479,13.000 C0.215,13.000 0.000,12.776 0.000,12.500 C0.000,11.144 0.881,9.967 2.141,9.638 L3.751,9.218 L3.841,8.840 C3.447,8.375 3.167,7.785 3.051,7.176 C2.732,7.040 2.516,6.752 2.473,6.403 L2.358,5.446 C2.325,5.168 2.408,4.887 2.585,4.677 C2.653,4.599 2.728,4.533 2.812,4.482 C2.781,4.194 2.748,3.836 2.748,3.651 C2.748,2.749 2.999,1.554 5.140,1.481 C5.514,1.234 5.939,1.086 6.433,1.031 C6.699,1.001 6.933,1.201 6.959,1.475 C6.987,1.749 6.797,1.996 6.534,2.025 Z" class="rcls-1"/>
</symbol><symbol id="top-text" viewBox="0 0 52.5 81.3" enable-background="new 0 0 52.5 81.3" xml:space="preserve">
<g>

	<clipPath id="sSVGID_2_">
		<use xlink:href="#SVGID_1_" overflow="visible"/>
	</clipPath>
	<path clip-path="url(#sSVGID_2_)" d="M26.3,0C11.9,0,0.1,11.7,0,26.1c0,0.5,0.2,0.9,0.5,1.2c0.3,0.3,0.8,0.5,1.2,0.5
		h8.8l3,9.4c0.2,0.7,0.9,1.2,1.7,1.2h22.1c0.8,0,1.4-0.5,1.7-1.2l3-9.4h8.8c0.5,0,0.9-0.2,1.2-0.5c0.3-0.3,0.5-0.8,0.5-1.2
		C52.4,11.7,40.7,0,26.3,0 M40.7,24.4c-0.8,0-1.4,0.5-1.7,1.2L36,35H16.5l-3-9.4c-0.2-0.7-0.9-1.2-1.7-1.2H3.6
		c1-11.7,10.8-20.9,22.7-20.9c11.9,0,21.7,9.2,22.7,20.9H40.7z"/>
	<path clip-path="url(#sSVGID_2_)" d="M12.7,46.6c-1,0-1.8,0.8-1.8,1.8c0,1,0.8,1.8,1.8,1.8c0.9,0,1.5,0.5,2,0.9
		c1.1,1.1,1.8,3.1,1.8,5.2c0,4.1-2,5.2-4.7,6.1c-2.3,0.8-7,2.4-7,9.4c0,3,1,5.8,2.8,7.7c1.3,1.3,2.8,2,4.4,2c1,0,1.8-0.8,1.8-1.8
		c0-1-0.8-1.8-1.8-1.8c-0.9,0-1.5-0.5-2-0.9c-1.1-1.1-1.8-3.1-1.8-5.2c0-4.1,2-5.2,4.7-6.1c2.3-0.8,7-2.4,7-9.4c0-3-1-5.8-2.8-7.7
		C15.9,47.3,14.4,46.6,12.7,46.6"/>
	<path clip-path="url(#sSVGID_2_)" d="M40.7,62.3c-2.7-0.9-4.7-2-4.7-6.1c0-2,0.7-4,1.8-5.2c0.4-0.4,1.1-0.9,2-0.9
		c1,0,1.8-0.8,1.8-1.8s-0.8-1.8-1.8-1.8c-1.6,0-3.2,0.7-4.4,2c-1.8,1.8-2.8,4.7-2.8,7.6c0,6.9,4.8,8.6,7,9.4c2.7,0.9,4.7,2,4.7,6.1
		c0,2-0.7,4-1.8,5.2c-0.4,0.4-1.1,0.9-2,0.9c-1,0-1.8,0.8-1.8,1.8c0,1,0.8,1.8,1.8,1.8c1.6,0,3.2-0.7,4.4-2c1.8-1.8,2.8-4.7,2.8-7.6
		C47.7,64.7,43,63.1,40.7,62.3"/>
	<path clip-path="url(#sSVGID_2_)" d="M26.3,46.6c-1,0-1.8,0.8-1.8,1.8v31.1c0,1,0.8,1.8,1.8,1.8c1,0,1.8-0.8,1.8-1.8
		V48.4C28,47.4,27.2,46.6,26.3,46.6"/>
</g>
</symbol><symbol preserveAspectRatio="xMidYMid" viewBox="0 0 15 16.969" id="welcome">
  <defs>
    <style>.tcls-1{fill:#4b586d;fill-rule:evenodd}</style>
  </defs>
  <path d="M13.552,5.908 C13.299,5.752 12.966,5.829 12.809,6.078 C12.651,6.328 12.728,6.656 12.981,6.812 C13.570,7.174 13.921,7.799 13.921,8.483 C13.921,9.168 13.570,9.792 12.981,10.154 L4.131,15.600 C3.506,15.984 2.750,16.003 2.106,15.651 C1.463,15.298 1.079,14.655 1.079,13.929 L1.079,3.037 C1.079,2.311 1.463,1.668 2.106,1.315 C2.750,0.963 3.506,0.982 4.131,1.366 L9.283,4.536 C9.536,4.692 9.869,4.616 10.026,4.366 C10.184,4.116 10.107,3.788 9.854,3.633 L4.702,0.462 C3.740,-0.129 2.574,-0.159 1.583,0.384 C0.592,0.927 -0.000,1.919 -0.000,3.037 L-0.000,13.929 C-0.000,15.047 0.592,16.039 1.583,16.582 C2.055,16.840 2.566,16.969 3.077,16.969 C3.638,16.969 4.198,16.813 4.702,16.503 L13.552,11.058 C14.459,10.500 15.000,9.537 15.000,8.483 C15.000,7.428 14.459,6.466 13.552,5.908 Z" class="tcls-1"/>
</symbol></svg>